<svg id="Calque_1" data-name="Calque 1" xmlns="http://www.w3.org/2000/svg" xmlns:xlink="http://www.w3.org/1999/xlink" viewBox="0 0 88.94 96.36"><defs><style>.cls-1,.cls-4,.cls-5,.cls-6{stroke:#42210b;}.cls-1,.cls-2,.cls-3,.cls-4,.cls-5,.cls-6{stroke-miterlimit:10;}.cls-1,.cls-5,.cls-6{stroke-width:0.93px;}.cls-1{fill:url(#Or);}.cls-2{stroke-width:1.36px;fill:url(#Orange);stroke:url(#Orange-2);}.cls-3{stroke-width:0.98px;fill:url(#Rouge_orangé);stroke:url(#Rouge_orangé-2);}.cls-4{stroke-width:0.9px;fill:url(#Indigo);}.cls-5{fill:#fff;}.cls-6{fill:#1d1d1b;}</style><linearGradient id="Or" x1="37.04" y1="77.45" x2="120.33" y2="77.45" gradientTransform="matrix(0.65, -1.02, 0.84, 0.54, -48.73, 117.52)" gradientUnits="userSpaceOnUse"><stop offset="0" stop-color="#ffeba9"/><stop offset="0.5" stop-color="#fecc00"/><stop offset="1" stop-color="#f8ae00"/></linearGradient><linearGradient id="Orange" x1="86.25" y1="68.36" x2="103.39" y2="41.38" gradientTransform="matrix(0.82, 0.68, -1.28, 1.54, 63.16, -78.85)" gradientUnits="userSpaceOnUse"><stop offset="0" stop-color="#f3944c"/><stop offset="0.5" stop-color="#ed6d05"/><stop offset="1" stop-color="#d25917"/></linearGradient><linearGradient id="Orange-2" x1="45.51" y1="73.2" x2="95.92" y2="73.2" gradientTransform="matrix(1, 0, 0, 1, 0, 0)" xlink:href="#Orange"/><linearGradient id="Rouge_orangé" x1="92.36" y1="70.08" x2="108.26" y2="45.05" gradientTransform="matrix(0.57, 0.47, -0.97, 1.17, 71.77, -48.87)" gradientUnits="userSpaceOnUse"><stop offset="0" stop-color="#ef7b5a"/><stop offset="0.5" stop-color="#e30613"/><stop offset="1" stop-color="#cb181a"/></linearGradient><linearGradient id="Rouge_orangé-2" x1="48.51" y1="82.73" x2="95.02" y2="82.73" gradientTransform="matrix(0.72, -0.03, -0.03, 0.73, 23.62, 11.06)" xlink:href="#Rouge_orangé"/><linearGradient id="Indigo" x1="31.37" y1="49.74" x2="117.64" y2="49.74" gradientTransform="matrix(0.88, -0.07, -0.07, 0.95, 19.8, 12.15)" gradientUnits="userSpaceOnUse"><stop offset="0" stop-color="#5e4f9c"/><stop offset="0.5" stop-color="#312783"/><stop offset="1" stop-color="#463a6a"/></linearGradient></defs><title>logo_lacapsule_4</title><path class="cls-1" d="M94.44,36.87c7.8,5.16,11.45,12.33,15.06,19.24s6.88,13.14,5,20.19c-1.56,5.87-6,9.63-9,12.2-1.11,1-4.49,3.71-13.57,7.41C87.31,97.8,83.25,99,73.82,101.6c-13.21,3.59-15.58,3.55-23,6a122.13,122.13,0,0,0-19.24,8.13,115.87,115.87,0,0,0,5.09-19.34,187.1,187.1,0,0,0,2.22-22.94c.08-2.49.09-4.91.32-8,.14-2,.31-3.39.35-3.73A62.59,62.59,0,0,1,42.46,47.8a42.05,42.05,0,0,1,3.91-8.32C53.32,29.12,77.86,25.88,94.44,36.87Z" transform="translate(-30.71 -20.29)"/><path class="cls-2" d="M95,74c.33,2.78.71,6-1.08,9-3.6,5.91-12.31,4.68-25.75,7.31A101.79,101.79,0,0,0,46.72,97a58,58,0,0,0,4.07-20.33C50.92,66.15,48,59.32,52.41,53.9a14.14,14.14,0,0,1,7.32-4.34c10.1-3,19.58,3.91,22.77,6.24S93.79,64.05,95,74Z" transform="translate(-30.71 -20.29)"/><path class="cls-3" d="M88.73,69.22c-.92,5.67-5.87,8.69-6.77,9.21-3.24,1.88-5.89,1.63-9.22,2-4.15.49-10.06,2.05-17.07,7,3.85-8.85,3.81-15.36,3-19.78-.61-3.2-1.83-6.36-.27-9.76,1.88-4.09,6.47-5.59,7.58-6,6-2,12.39.26,16.54,3.8C83.73,56.85,89.9,62.12,88.73,69.22Z" transform="translate(-30.71 -20.29)"/><path class="cls-4" d="M111.05,83c-1.73.72-24.54,9.74-45.41-4.37C46.87,65.92,45,44.85,44.8,42.24c10.74-20.69,37.07-27.58,55.89-15.67C119.19,38.28,124.45,64.39,111.05,83Z" transform="translate(-30.71 -20.29)"/><path class="cls-5" d="M114.47,30a23.21,23.21,0,0,1,4.61,15.94,19.13,19.13,0,0,1-3.25,9.53c-1.27,1.8-3.21,4.52-6.23,4.95-2.87.41-5.16-1.45-8.95-4.6a51.64,51.64,0,0,1-9.21-10.3,40.83,40.83,0,0,1-6-11.11c-1.33-4-2.44-7.32-.78-9.75,1.46-2.12,4.31-2.42,8-2.93a24.21,24.21,0,0,1,10.08.68A22.52,22.52,0,0,1,114.47,30Z" transform="translate(-30.71 -20.29)"/><path class="cls-6" d="M115.33,31.41c1.94,3.53,1.73,9-1.13,10.57S107,40.54,105,37.64c-2.41-3.41-3.27-9-.81-10.91C106.81,24.68,113,27.08,115.33,31.41Z" transform="translate(-30.71 -20.29)"/></svg>