<svg width="456" height="514" viewBox="0 0 456 514" fill="none" xmlns="http://www.w3.org/2000/svg">
<path d="M248.353 263.499L248.353 0.000457764L331.258 47.9214L331.258 311.571L330.889 311.785L248.353 263.499Z" fill="#F2F2F2"/>
<path d="M248.353 263.499L248.353 0.000457764L331.258 47.9214L331.258 311.571L330.889 311.785L248.353 263.499Z" stroke="white"/>
<path d="M208.751 263.499L208.751 0.000457764L125.846 47.9214L125.846 311.571L126.215 311.785L208.751 263.499Z" fill="#F28241"/>
<path d="M208.751 263.499L208.751 0.000457764L125.846 47.9214L125.846 311.571L126.215 311.785L208.751 263.499Z" stroke="white"/>
<path d="M144.901 466.003L373.095 334.103L373.095 70.6027L456 118.525L456 382.174L227.938 513.999L144.901 466.003Z" fill="#F2F2F2"/>
<path d="M144.901 466.003L373.095 334.103L373.095 70.6027L456 118.525L456 382.174L227.938 513.999L144.901 466.003Z" stroke="white"/>
<path d="M-0.00012207 382.174L-0.00012207 118.525L82.9052 70.6027L82.9052 334.103L311.099 466.003L228.062 513.999L-0.00012207 382.174Z" fill="#F28241"/>
<path d="M-0.00012207 382.174L-0.00012207 118.525L82.9052 70.6027L82.9052 334.103L311.099 466.003L228.062 513.999L-0.00012207 382.174Z" stroke="white"/>
</svg>
