<svg width="1836" height="518" viewBox="0 0 1836 518" fill="none" xmlns="http://www.w3.org/2000/svg">
<path d="M276.353 267.5L276.353 4.00122L359.258 51.9221L359.258 315.572L358.889 315.785L276.353 267.5Z" fill="#F2F2F2"/>
<path d="M276.353 267.5L276.353 4.00122L359.258 51.9221L359.258 315.572L358.889 315.785L276.353 267.5Z" stroke="white"/>
<path d="M236.751 267.5L236.751 4.00122L153.846 51.9221L153.846 315.572L154.215 315.785L236.751 267.5Z" fill="#F28241"/>
<path d="M236.751 267.5L236.751 4.00122L153.846 51.9221L153.846 315.572L154.215 315.785L236.751 267.5Z" stroke="white"/>
<path d="M172.901 470.004L401.095 338.104L401.095 74.6035L484 122.525L484 386.175L255.938 518L172.901 470.004Z" fill="#F2F2F2"/>
<path d="M172.901 470.004L401.095 338.104L401.095 74.6035L484 122.525L484 386.175L255.938 518L172.901 470.004Z" stroke="white"/>
<path d="M27.9998 386.175L27.9998 122.525L110.905 74.6035L110.905 338.104L339.098 470.004L256.062 518L27.9998 386.175Z" fill="#F28241"/>
<path d="M27.9998 386.175L27.9998 122.525L110.905 74.6035L110.905 338.104L339.098 470.004L256.062 518L27.9998 386.175Z" stroke="white"/>
<path d="M668.382 302.765L697.552 179.547H713.847L717.568 200.066L686.487 326H668.985L668.382 302.765ZM653.395 179.547L677.535 302.765L675.523 326H656.01L623.521 179.547H653.395ZM743.218 302.262L767.057 179.547H796.931L764.542 326H745.028L743.218 302.262ZM723 179.547L752.371 303.268L751.566 326H734.064L702.782 199.966L706.806 179.547H723ZM933.627 249.354V256.294C933.627 267.425 932.118 277.417 929.101 286.269C926.083 295.12 921.825 302.664 916.326 308.9C910.827 315.07 904.256 319.797 896.611 323.083C889.034 326.369 880.618 328.012 871.364 328.012C862.177 328.012 853.762 326.369 846.117 323.083C838.54 319.797 831.968 315.07 826.402 308.9C820.837 302.664 816.511 295.12 813.427 286.269C810.409 277.417 808.9 267.425 808.9 256.294V249.354C808.9 238.155 810.409 228.163 813.427 219.379C816.444 210.527 820.702 202.983 826.201 196.747C831.767 190.511 838.339 185.75 845.916 182.464C853.561 179.178 861.976 177.535 871.163 177.535C880.417 177.535 888.833 179.178 896.41 182.464C904.055 185.75 910.626 190.511 916.125 196.747C921.691 202.983 925.982 210.527 929 219.379C932.085 228.163 933.627 238.155 933.627 249.354ZM903.149 256.294V249.152C903.149 241.374 902.445 234.534 901.037 228.633C899.629 222.732 897.55 217.77 894.801 213.746C892.051 209.723 888.699 206.705 884.742 204.693C880.786 202.615 876.259 201.575 871.163 201.575C866.067 201.575 861.54 202.615 857.584 204.693C853.695 206.705 850.375 209.723 847.626 213.746C844.944 217.77 842.898 222.732 841.49 228.633C840.082 234.534 839.378 241.374 839.378 249.152V256.294C839.378 264.006 840.082 270.845 841.49 276.813C842.898 282.715 844.977 287.71 847.727 291.801C850.476 295.824 853.829 298.875 857.785 300.954C861.742 303.033 866.268 304.072 871.364 304.072C876.461 304.072 880.987 303.033 884.943 300.954C888.9 298.875 892.219 295.824 894.901 291.801C897.584 287.71 899.629 282.715 901.037 276.813C902.445 270.845 903.149 264.006 903.149 256.294ZM955.354 179.547H1009.97C1021.17 179.547 1030.79 181.223 1038.84 184.576C1046.95 187.929 1053.19 192.891 1057.55 199.463C1061.91 206.035 1064.09 214.115 1064.09 223.704C1064.09 231.55 1062.75 238.289 1060.06 243.922C1057.45 249.488 1053.73 254.148 1048.9 257.903C1044.14 261.591 1038.54 264.542 1032.1 266.755L1022.54 271.784H975.068L974.867 248.247H1010.17C1015.47 248.247 1019.86 247.308 1023.35 245.431C1026.84 243.553 1029.45 240.938 1031.2 237.585C1033.01 234.232 1033.91 230.343 1033.91 225.917C1033.91 221.223 1033.04 217.166 1031.3 213.746C1029.55 210.326 1026.9 207.711 1023.35 205.9C1019.8 204.09 1015.34 203.185 1009.97 203.185H985.529V326H955.354V179.547ZM1037.23 326L1003.84 260.72L1035.72 260.519L1069.52 324.592V326H1037.23ZM1117.5 179.547V326H1087.32V179.547H1117.5ZM1205.21 179.547L1147.17 251.868L1113.68 287.878L1108.24 259.312L1130.88 228.331L1168.19 179.547H1205.21ZM1170.91 326L1127.76 258.306L1150.09 239.597L1206.62 326H1170.91ZM1294.53 287.677C1294.53 285.062 1294.13 282.715 1293.32 280.636C1292.58 278.49 1291.18 276.545 1289.1 274.802C1287.02 272.991 1284.1 271.214 1280.35 269.471C1276.59 267.727 1271.73 265.917 1265.76 264.039C1259.12 261.893 1252.82 259.479 1246.85 256.797C1240.95 254.115 1235.72 250.996 1231.16 247.442C1226.67 243.821 1223.11 239.63 1220.5 234.869C1217.95 230.108 1216.68 224.576 1216.68 218.272C1216.68 212.17 1218.02 206.638 1220.7 201.676C1223.38 196.646 1227.14 192.355 1231.96 188.801C1236.79 185.18 1242.49 182.397 1249.06 180.452C1255.7 178.507 1262.98 177.535 1270.89 177.535C1281.69 177.535 1291.11 179.48 1299.16 183.369C1307.2 187.258 1313.44 192.59 1317.87 199.362C1322.36 206.135 1324.6 213.88 1324.6 222.598H1294.63C1294.63 218.306 1293.72 214.551 1291.91 211.332C1290.17 208.046 1287.49 205.465 1283.87 203.587C1280.31 201.709 1275.82 200.771 1270.39 200.771C1265.16 200.771 1260.8 201.575 1257.31 203.185C1253.83 204.727 1251.21 206.839 1249.47 209.521C1247.72 212.137 1246.85 215.087 1246.85 218.373C1246.85 220.854 1247.46 223.101 1248.66 225.112C1249.94 227.124 1251.81 229.002 1254.29 230.745C1256.78 232.489 1259.83 234.132 1263.45 235.674C1267.07 237.216 1271.26 238.725 1276.02 240.2C1284 242.614 1291.01 245.33 1297.04 248.348C1303.15 251.365 1308.24 254.752 1312.33 258.507C1316.42 262.262 1319.51 266.52 1321.59 271.281C1323.67 276.042 1324.71 281.44 1324.71 287.476C1324.71 293.846 1323.46 299.546 1320.98 304.575C1318.5 309.604 1314.91 313.863 1310.22 317.35C1305.53 320.837 1299.93 323.485 1293.42 325.296C1286.92 327.106 1279.64 328.012 1271.6 328.012C1264.35 328.012 1257.21 327.073 1250.17 325.195C1243.13 323.251 1236.73 320.334 1230.96 316.444C1225.26 312.555 1220.7 307.593 1217.28 301.558C1213.86 295.522 1212.15 288.381 1212.15 280.133H1242.43C1242.43 284.693 1243.13 288.549 1244.54 291.7C1245.95 294.852 1247.92 297.4 1250.47 299.345C1253.09 301.289 1256.17 302.698 1259.73 303.569C1263.35 304.441 1267.3 304.877 1271.6 304.877C1276.83 304.877 1281.12 304.139 1284.47 302.664C1287.89 301.189 1290.41 299.144 1292.01 296.528C1293.69 293.913 1294.53 290.963 1294.53 287.677ZM1402.26 273.796H1364.94V250.259H1402.26C1408.02 250.259 1412.72 249.32 1416.34 247.442C1419.96 245.498 1422.61 242.815 1424.29 239.396C1425.96 235.976 1426.8 232.12 1426.8 227.828C1426.8 223.469 1425.96 219.412 1424.29 215.657C1422.61 211.902 1419.96 208.884 1416.34 206.604C1412.72 204.325 1408.02 203.185 1402.26 203.185H1375.4V326H1345.22V179.547H1402.26C1413.72 179.547 1423.55 181.626 1431.73 185.783C1439.98 189.874 1446.28 195.54 1450.64 202.782C1455 210.024 1457.18 218.306 1457.18 227.627C1457.18 237.082 1455 245.263 1450.64 252.17C1446.28 259.077 1439.98 264.408 1431.73 268.163C1423.55 271.918 1413.72 273.796 1402.26 273.796ZM1520.85 204.593L1481.02 326H1448.93L1503.35 179.547H1523.76L1520.85 204.593ZM1553.94 326L1514.01 204.593L1510.79 179.547H1531.41L1586.13 326H1553.94ZM1552.13 271.482V295.12H1474.78V271.482H1552.13ZM1682.79 277.417H1712.87C1712.26 287.274 1709.55 296.025 1704.72 303.67C1699.96 311.314 1693.29 317.283 1684.7 321.574C1676.19 325.866 1665.93 328.012 1653.92 328.012C1644.53 328.012 1636.12 326.402 1628.68 323.184C1621.23 319.898 1614.86 315.204 1609.56 309.102C1604.33 302.999 1600.34 295.623 1597.59 286.973C1594.85 278.322 1593.47 268.632 1593.47 257.903V247.744C1593.47 237.015 1594.88 227.325 1597.7 218.675C1600.58 209.957 1604.67 202.548 1609.97 196.445C1615.33 190.343 1621.74 185.649 1629.18 182.363C1636.62 179.077 1644.94 177.435 1654.12 177.435C1666.33 177.435 1676.62 179.647 1685 184.073C1693.45 188.499 1699.99 194.601 1704.62 202.38C1709.31 210.159 1712.13 219.01 1713.07 228.935H1682.89C1682.56 223.034 1681.38 218.038 1679.37 213.947C1677.36 209.79 1674.31 206.672 1670.22 204.593C1666.19 202.447 1660.83 201.374 1654.12 201.374C1649.09 201.374 1644.7 202.313 1640.95 204.19C1637.19 206.068 1634.04 208.918 1631.49 212.74C1628.94 216.562 1627.03 221.391 1625.76 227.225C1624.55 232.992 1623.95 239.764 1623.95 247.543V257.903C1623.95 265.481 1624.52 272.153 1625.66 277.92C1626.8 283.62 1628.54 288.448 1630.89 292.404C1633.3 296.294 1636.39 299.244 1640.14 301.256C1643.96 303.201 1648.56 304.173 1653.92 304.173C1660.23 304.173 1665.42 303.167 1669.51 301.155C1673.6 299.144 1676.72 296.16 1678.87 292.203C1681.08 288.247 1682.39 283.318 1682.79 277.417ZM1830.95 302.463V326H1753V302.463H1830.95ZM1762.86 179.547V326H1732.68V179.547H1762.86ZM1820.79 239.194V262.128H1753V239.194H1820.79ZM1830.85 179.547V203.185H1753V179.547H1830.85Z" fill="white"/>
</svg>
